<?xml version="1.0" encoding="UTF-8" standalone="no"?>
<!-- Created with Inkscape (http://www.inkscape.org/) -->

<svg
   xmlns:dc="http://purl.org/dc/elements/1.1/"
   xmlns:cc="http://creativecommons.org/ns#"
   xmlns:rdf="http://www.w3.org/1999/02/22-rdf-syntax-ns#"
   xmlns:svg="http://www.w3.org/2000/svg"
   xmlns="http://www.w3.org/2000/svg"
   xmlns:sodipodi="http://sodipodi.sourceforge.net/DTD/sodipodi-0.dtd"
   xmlns:inkscape="http://www.inkscape.org/namespaces/inkscape"
   width="1024"
   height="768"
   id="svg2"
   sodipodi:version="0.32"
   inkscape:version="0.48.3.1 r9886"
   sodipodi:docname="background.svg"
   inkscape:output_extension="org.inkscape.output.svg.inkscape"
   inkscape:export-filename="/home/ralsina/Desktop/proyectos/rst/trunk/rst2pdf/tests/input/background.png"
   inkscape:export-xdpi="120"
   inkscape:export-ydpi="120"
   version="1.0">
  <defs
     id="defs4">
    <linearGradient
       id="linearGradient3155">
      <stop
         style="stop-color:#000000;stop-opacity:1;"
         offset="0"
         id="stop3157" />
      <stop
         id="stop3163"
         offset="0.06521739"
         style="stop-color:#000000;stop-opacity:0.49803922;" />
      <stop
         style="stop-color:#000000;stop-opacity:0.24705882;"
         offset="0.14650284"
         id="stop3165" />
      <stop
         style="stop-color:#000000;stop-opacity:0;"
         offset="1"
         id="stop3159" />
    </linearGradient>
    <inkscape:perspective
       sodipodi:type="inkscape:persp3d"
       inkscape:vp_x="0 : 526.18109 : 1"
       inkscape:vp_y="0 : 1000 : 0"
       inkscape:vp_z="744.09448 : 526.18109 : 1"
       inkscape:persp3d-origin="372.04724 : 350.78739 : 1"
       id="perspective10" />
  </defs>
  <sodipodi:namedview
     id="base"
     pagecolor="#ffffff"
     bordercolor="#666666"
     borderopacity="1.0"
     gridtolerance="10000"
     guidetolerance="10"
     objecttolerance="10"
     inkscape:pageopacity="0.0"
     inkscape:pageshadow="2"
     inkscape:zoom="0.31368533"
     inkscape:cx="1407.1236"
     inkscape:cy="92.362178"
     inkscape:document-units="px"
     inkscape:current-layer="layer1"
     showgrid="false"
     inkscape:window-width="1215"
     inkscape:window-height="776"
     inkscape:window-x="65"
     inkscape:window-y="24"
     units="px"
     inkscape:window-maximized="1" />
  <metadata
     id="metadata7">
    <rdf:RDF>
      <cc:Work
         rdf:about="">
        <dc:format>image/svg+xml</dc:format>
        <dc:type
           rdf:resource="http://purl.org/dc/dcmitype/StillImage" />
      </cc:Work>
    </rdf:RDF>
  </metadata>
  <g
     inkscape:label="Layer 1"
     inkscape:groupmode="layer"
     id="layer1"
     transform="translate(0,449.10236)">
    <path
       style="fill:#a1bfc9;fill-opacity:1;stroke:#1947c0;stroke-width:1.18483663;stroke-linecap:round;stroke-linejoin:miter;stroke-miterlimit:4;stroke-opacity:1"
       d="m 958.67155,-446.70354 64.63765,0 0,763.54398 -64.63765,0 0,-763.54398 z"
       id="rect3158"
       inkscape:connector-curvature="0" />
    <rect
       style="fill:none;stroke:#000000;stroke-width:4.70144749;stroke-linecap:round;stroke-linejoin:miter;stroke-miterlimit:4;stroke-opacity:1;stroke-dasharray:none"
       id="rect2383"
       width="1019.5657"
       height="762.16748"
       x="2.214066"
       y="-446.01529" />
    <path
       style="fill:#000000;fill-opacity:1;stroke:#1947c0;stroke-width:2.084723px;stroke-linecap:butt;stroke-linejoin:miter;stroke-opacity:1"
       d="m 976.54565,-383.44185 24.07465,0 c 1.2839,5e-5 2.4073,-0.64182 3.3704,-1.9256 0.9629,-1.28368 1.4444,-2.78137 1.4445,-4.49308 l 0,-12.83734 c -10e-5,-1.71157 -0.4816,-3.20926 -1.4445,-4.49307 -0.9631,-1.28366 -2.0865,-1.92553 -3.3704,-1.9256 l -24.07465,0 0,25.67469 m 33.70435,51.34938 c -1.284,0 -2.4074,-0.64187 -3.3703,-1.9256 -0.963,-1.28373 -1.4446,-2.78142 -1.4445,-4.49307 l 0,-25.67469 c -10e-5,-1.71161 -0.4816,-3.20931 -1.4445,-4.49308 -0.9631,-1.28369 -2.0865,-1.92556 -3.3704,-1.9256 l -24.07465,0 0,32.09337 c -2e-5,1.71165 -0.48151,3.20934 -1.44448,4.49307 -0.96299,1.28373 -2.08647,1.9256 -3.37044,1.9256 -1.28398,0 -2.40748,-0.64187 -3.37045,-1.9256 -0.96298,-1.28373 -1.44448,-2.78142 -1.44448,-4.49307 l 0,-77.02408 c 0,-1.71156 0.4815,-3.20925 1.44448,-4.49307 0.96297,-1.28364 2.08647,-1.92551 3.37045,-1.9256 l 28.88957,0 c 3.8518,9e-5 7.2223,1.92569 10.1113,5.77681 2.8888,3.85128 4.3334,8.34435 4.3334,13.47921 l 0,12.83734 c 0,5.135 -1.4446,9.62806 -4.3334,13.47922 2.8888,2.99542 4.3334,7.06057 4.3334,12.19548 l 0,25.67469 c 0,1.71165 -0.4816,3.20934 -1.4445,4.49307 -0.963,1.28373 -2.0864,1.9256 -3.3705,1.9256 m -28.88944,64.18673 c -4.49393,4e-5 -8.02488,-1.71161 -10.59281,-5.13494 -2.56798,-3.42324 -3.85195,-8.13026 -3.85195,-14.12108 l 0,-12.83734 c 0,-5.13486 1.28397,-9.62793 3.85195,-13.47922 2.56793,-3.85111 6.09888,-5.77671 10.59281,-5.7768 l 19.25974,0 c 3.8518,9e-5 7.2223,1.92569 10.1113,5.7768 2.8888,3.85129 4.3334,8.34436 4.3334,13.47922 0,1.71171 -0.4816,3.2094 -1.4445,4.49307 -0.963,1.2838 -2.0864,1.92566 -3.3705,1.9256 -1.284,6e-5 -2.4074,-0.6418 -3.3703,-1.9256 -0.963,-1.28367 -1.4446,-2.78136 -1.4445,-4.49307 -10e-5,-1.71158 -0.4816,-3.20927 -1.4445,-4.49308 -0.9631,-1.28365 -2.0865,-1.92552 -3.3704,-1.9256 l -19.25974,0 c -1.28399,8e-5 -2.40747,0.64195 -3.37043,1.9256 -0.963,1.28381 -1.4445,2.7815 -1.44448,4.49308 l 0,12.83734 c -2e-5,1.71171 0.48148,3.20939 1.44448,4.49307 0.96296,1.28379 2.08644,1.92566 3.37043,1.92561 l 19.25974,0 c 3.8518,5e-5 7.2223,1.92565 10.1113,5.7768 2.8888,3.85125 4.3334,8.34431 4.3334,13.47921 l 0,12.83735 c 0,5.99077 -1.4446,10.69779 -4.3334,14.12108 -2.889,3.42329 -6.2595,5.13494 -10.1113,5.13494 l -19.25974,0 c -3.85195,0 -7.22238,-1.9256 -10.11134,-5.77681 -2.88894,-3.85119 -4.33342,-8.34426 -4.33342,-13.47921 0,-1.71163 0.4815,-3.20932 1.44448,-4.49307 0.96297,-1.28371 2.08647,-1.92558 3.37045,-1.9256 1.28397,2e-5 2.40745,0.64189 3.37044,1.9256 0.96297,1.28375 1.44446,2.78144 1.44448,4.49307 -2e-5,1.71166 0.48148,3.20935 1.44448,4.49307 0.96296,1.28375 2.08644,1.92561 3.37043,1.9256 l 19.25974,0 c 1.2839,1e-5 2.4073,-0.64185 3.3704,-1.9256 0.9629,-1.28372 1.4444,-2.78141 1.4445,-4.49307 l 0,-12.83735 c -10e-5,-1.71161 -0.4816,-3.2093 -1.4445,-4.49307 -0.9631,-1.28369 -2.0865,-1.92556 -3.3704,-1.9256 l -19.25974,0 m -9.62983,64.18676 c -1.28398,7e-5 -2.40748,-0.64182 -3.37045,-1.92561 -0.96298,-1.28366 -1.44448,-2.78135 -1.44448,-4.49308 0,-1.71156 0.4815,-3.20925 1.44448,-4.49307 0.96297,-1.28365 2.08647,-1.92552 3.37045,-1.9256 l 38.51927,0 c 1.2841,8e-5 2.4075,0.64195 3.3705,1.9256 0.9629,1.28382 1.4445,2.78151 1.4445,4.49307 0,1.71173 -0.4816,3.20942 -1.4445,4.49308 -0.963,1.28379 -2.0864,1.92568 -3.3705,1.92561 l -14.44468,0 0,70.60537 c -2e-5,1.71164 -0.48152,3.20935 -1.44448,4.49309 -0.96302,1.28373 -2.0865,1.9256 -3.37043,1.9256 -1.28401,0 -2.40749,-0.64187 -3.37045,-1.9256 -0.96302,-1.28374 -1.4445,-2.78145 -1.44448,-4.49309 l 0,-70.60537 -14.44475,0 m 0,115.536095 c -1.28398,7.3e-5 -2.40748,-0.641797 -3.37045,-1.925607 -0.96298,-1.283642 -1.44448,-2.781345 -1.44448,-4.493061 0,-5.134857 1.44448,-9.627917 4.33342,-13.479227 2.88896,-3.8511 6.25939,-5.7767 10.11134,-5.7768 l 19.25974,0 c 3.8518,1e-4 7.2223,1.9257 10.1113,5.7768 2.8888,3.85131 4.3334,8.34437 4.3334,13.479227 l 0,12.83736 c 0,1.711692 -0.4816,3.20937 -1.4445,4.493037 l -30.52657,40.437639 27.15607,0 c 1.2841,2.4e-5 2.4075,0.641917 3.3705,1.925608 0.9629,1.283762 1.4445,2.781441 1.4445,4.493084 0,1.711643 -0.4816,3.209346 -1.4445,4.493084 -0.963,1.283715 -2.0864,1.925584 -3.3705,1.925584 l -38.51927,0 c -1.28398,0 -2.40748,-0.641869 -3.37045,-1.925584 -0.96298,-1.283738 -1.44448,-2.781441 -1.44448,-4.493084 0,-1.711643 0.4815,-3.209322 1.44448,-4.493084 l 37.07492,-49.680532 0,-10.013112 c -10e-5,-1.711571 -0.4816,-3.209273 -1.4445,-4.49306 -0.9631,-1.283667 -2.0865,-1.925537 -3.3704,-1.925607 l -19.25974,0 c -1.28399,7e-5 -2.40747,0.64194 -3.37043,1.925607 -0.963,1.283787 -1.4445,2.781489 -1.44448,4.49306 -2e-5,1.711716 -0.48151,3.209419 -1.44448,4.493061 -0.96299,1.28381 -2.08647,1.92568 -3.37044,1.925607 m 4.81492,115.536096 24.07465,0 c 1.2839,4.8e-5 2.4073,-0.641821 3.3704,-1.925608 0.9629,-1.28369 1.4444,-2.781369 1.4445,-4.493084 l 0,-12.8373363 c -10e-5,-1.7115709 -0.4816,-3.2092497 -1.4445,-4.4930845 -0.9631,-1.283642 -2.0865,-1.9254871 -3.3704,-1.9255835 l -24.07465,0 0,25.6746963 m 0,44.930699 c -2e-5,1.711643 -0.48151,3.209346 -1.44448,4.493061 -0.96299,1.283762 -2.08647,1.925607 -3.37044,1.925607 -1.28398,0 -2.40748,-0.641845 -3.37045,-1.925607 -0.96298,-1.283715 -1.44448,-2.781418 -1.44448,-4.493061 l 0,-77.0240632 c 0,-1.7115709 0.4815,-3.2092496 1.44448,-4.4930845 0.96297,-1.2836423 2.08647,-1.9254873 3.37045,-1.9255833 l 28.88957,0 c 3.8518,9.6e-5 7.2223,1.9256797 10.1113,5.7767986 2.8888,3.8512634 4.3334,8.3443478 4.3334,13.4792051 l 0,12.8373363 c 0,5.135001 -1.4446,9.628062 -4.3334,13.479205 -2.889,3.851263 -6.2595,5.776871 -10.1113,5.776822 l -24.07465,0 0,32.093364 m -4.81492,109.11745 c -1.28398,0 -2.40748,-0.64187 -3.37045,-1.92558 -0.96298,-1.28376 -1.44448,-2.78144 -1.44448,-4.49309 l 0,-77.02406 c 0,-1.711571 0.4815,-3.209273 1.44448,-4.493084 0.96297,-1.283642 2.08647,-1.925511 3.37045,-1.925608 l 28.88957,0 c 3.8518,9.7e-5 7.2223,1.925704 10.1113,5.776799 2.8888,3.851313 4.3334,8.344373 4.3334,13.479233 l 0,51.34939 c 0,5.13495 -1.4446,9.62801 -4.3334,13.4792 -2.889,3.85122 -6.2595,5.7768 -10.1113,5.7768 l -28.88957,0 m 33.70447,-19.256 0,-51.34939 c -10e-5,-1.71157 -0.4816,-3.20928 -1.4445,-4.49306 -0.9631,-1.28369 -2.0865,-1.92554 -3.3704,-1.92561 l -24.07465,0 0,64.1867 24.07465,0 c 1.2839,3e-5 2.4073,-0.64184 3.3704,-1.92558 0.9629,-1.28372 1.4444,-2.78142 1.4445,-4.49306 m -4.8149,83.44275 -24.07465,0 0,25.67468 c -2e-5,5.99078 -0.48151,9.62803 -1.44448,10.91175 -0.96299,1.28374 -2.08647,1.92561 -3.37044,1.92561 -1.28398,0 -2.40748,-0.64187 -3.37045,-1.92561 -0.96298,-1.28372 -1.44448,-2.78144 -1.44448,-4.49309 l 0,-77.02406 c 0,-1.71155 0.4815,-3.20925 1.44448,-4.49308 0.96297,-1.28362 2.08647,-1.92549 3.37045,-1.92559 l 38.51927,0 c 1.2841,1e-4 2.4075,0.64197 3.3705,1.92559 0.9629,1.28383 1.4445,2.78153 1.4445,4.49308 0,1.71174 -0.4816,3.20942 -1.4445,4.49308 -0.963,1.28379 -2.0864,1.92568 -3.3705,1.92561 l -33.70435,0 0,25.67467 24.07465,0 c 1.2839,8e-5 2.4073,0.64192 3.3704,1.92559 0.9629,1.28381 1.4444,2.78149 1.4445,4.49308 -10e-5,1.71169 -0.4816,3.2094 -1.4445,4.49309 -0.9631,1.28378 -2.0865,1.92563 -3.3704,1.9256"
       id="text3161"
       inkscape:connector-curvature="0" />
  </g>
</svg>
